<svg width="22" height="32" viewBox="0 0 22 32" fill="none" xmlns="http://www.w3.org/2000/svg">
<g clip-path="url(#clip0_3102_592)">
<path d="M16.7298 23.0322L15.8517 21.4049L10.7824 12.0039L5.74439 21.3463L4.86244 22.9776L0 32H2.09561L6.48195 23.8634C6.63415 23.9337 6.79024 23.9961 6.95024 24.0585C7.10634 24.121 7.26634 24.1756 7.43024 24.2302C8.50341 24.5893 9.65073 24.7844 10.841 24.7844C12.0312 24.7844 13.1122 24.601 14.158 24.2615C14.318 24.2107 14.482 24.1522 14.638 24.0937C14.7941 24.0351 14.9502 23.9727 15.1063 23.9063L19.4693 32H21.5649L16.7298 23.0322ZM13.7522 22.4546C13.5922 22.5093 13.4283 22.56 13.2644 22.6068C12.4917 22.8254 11.68 22.9424 10.841 22.9424C10.002 22.9424 9.12 22.8137 8.32 22.5795C8.1561 22.5327 7.99219 22.478 7.83219 22.4234C7.67219 22.3649 7.5161 22.3063 7.36 22.24L10.7824 15.8907L14.2244 22.2751C14.0683 22.3415 13.9083 22.4 13.7483 22.4546H13.7522Z" fill="white"/>
<path d="M10.4624 5.02634C10.3961 4.40195 10.2322 3.78927 9.95903 3.21171C9.68976 2.64585 9.32293 2.11122 8.85464 1.64293C7.75415 0.546341 6.31805 0 4.88195 0C4.68293 0 4.48781 0.0117073 4.28878 0.0312195C4.12488 1.5961 4.62049 3.21171 5.7639 4.44098C5.81073 4.49171 5.84976 4.54244 5.90049 4.59317C6.36488 5.05756 6.89171 5.41659 7.45366 5.68195C8.21464 6.04488 9.04195 6.23219 9.86927 6.23219C10.0683 6.23219 10.2634 6.22049 10.4624 6.20098C10.5054 5.81073 10.5015 5.41659 10.4624 5.02244V5.02634Z" fill="white"/>
<path d="M1.87707 13.9785C1.87707 10.6693 3.68 7.77756 6.35317 6.22439C5.93561 5.96293 5.54537 5.65854 5.19024 5.30341C5.08098 5.19415 4.97951 5.08488 4.88195 4.9678C1.95902 6.90732 0.0312195 10.2205 0.0312195 13.9785C0.0312195 17.202 1.45561 20.1015 3.70341 22.0839L4.61268 20.398C2.93463 18.7668 1.87707 16.4995 1.87707 13.9785Z" fill="white"/>
<path d="M21.6468 13.9785C21.6468 8.08585 16.9054 3.28195 11.04 3.17659C11.2742 3.76976 11.4224 4.39805 11.4771 5.04195C16.1249 5.36976 19.8049 9.25268 19.8049 13.9785C19.8049 16.5268 18.7278 18.8176 17.0146 20.4488L17.92 22.1307C20.199 20.1483 21.6468 17.2293 21.6468 13.9785Z" fill="white"/>
</g>
<defs>
<clipPath id="clip0_3102_592">
<rect width="21.6468" height="32" fill="white"/>
</clipPath>
</defs>
</svg>
