<svg width="1145" height="127" viewBox="0 0 1145 127" fill="none" xmlns="http://www.w3.org/2000/svg">
<path d="M1121.1 55.05C1121.1 45.65 1118.1 37.65 1112.1 31.05C1106.1 24.45 1098.7 21.15 1089.9 21.15C1081.2 21.15 1073.85 24.45 1067.85 31.05C1061.85 37.65 1058.85 45.65 1058.85 55.05C1058.85 64.35 1061.85 72.3 1067.85 78.9C1073.85 85.4 1081.2 88.65 1089.9 88.65C1098.7 88.65 1106.1 85.4 1112.1 78.9C1118.1 72.3 1121.1 64.35 1121.1 55.05ZM1129.05 93.6C1118.45 103.9 1105.4 109.05 1089.9 109.05C1074.4 109.05 1061.35 103.9 1050.75 93.6C1040.15 83.2 1034.85 70.3 1034.85 54.9C1034.85 39.5 1040.15 26.65 1050.75 16.35C1061.35 5.95 1074.4 0.75 1089.9 0.75C1105.4 0.75 1118.45 5.95 1129.05 16.35C1139.65 26.65 1144.95 39.5 1144.95 54.9C1144.95 70.3 1139.65 83.2 1129.05 93.6Z" fill="#E8E8E3"/>
<path d="M967.112 3.14999C985.812 3.14999 1000.16 7.75 1010.16 16.95C1020.16 26.05 1025.16 38.75 1025.16 55.05C1025.16 71.35 1020.26 84.25 1010.46 93.75C1000.76 103.25 985.912 108 965.912 108H930.062V3.14999H967.112ZM968.312 87.3C979.012 87.3 987.212 84.6 992.912 79.2C998.712 73.8 1001.61 65.95 1001.61 55.65C1001.61 45.35 998.712 37.45 992.912 31.95C987.212 26.35 978.412 23.55 966.512 23.55H953.462V87.3H968.312Z" fill="#E8E8E3"/>
<path d="M885.305 3.14999H908.705V108H885.305L835.355 42.3V108H811.955V3.14999H833.855L885.305 70.65V3.14999Z" fill="#E8E8E3"/>
<path d="M767.236 3.14999H790.636V108H767.236V3.14999Z" fill="#E8E8E3"/>
<path d="M686.839 81C690.739 85.8 695.989 88.2 702.589 88.2C709.189 88.2 714.389 85.8 718.189 81C722.089 76.1 724.039 69.45 724.039 61.05V3.14999H747.439V61.8C747.439 77 743.239 88.7 734.839 96.9C726.439 105 715.689 109.05 702.589 109.05C689.489 109.05 678.689 104.95 670.189 96.75C661.789 88.55 657.589 76.9 657.589 61.8V3.14999H680.989V61.05C680.989 69.45 682.939 76.1 686.839 81Z" fill="#E8E8E3"/>
<path d="M588.714 109.05C573.214 109.05 560.164 103.9 549.564 93.6C538.964 83.2 533.664 70.3 533.664 54.9C533.664 39.5 538.964 26.65 549.564 16.35C560.164 5.95 573.214 0.75 588.714 0.75C604.214 0.75 617.264 5.95 627.864 16.35C638.464 26.65 643.764 39.5 643.764 54.9C643.764 70.3 638.464 83.2 627.864 93.6C624.364 97 620.614 99.85 616.614 102.15L640.914 126.15H612.114L593.964 108.9C592.264 109 590.514 109.05 588.714 109.05ZM619.914 55.05C619.914 45.65 616.914 37.65 610.914 31.05C604.914 24.45 597.514 21.15 588.714 21.15C580.014 21.15 572.664 24.45 566.664 31.05C560.664 37.65 557.664 45.65 557.664 55.05C557.664 64.35 560.664 72.3 566.664 78.9C572.664 85.4 580.014 88.65 588.714 88.65C597.514 88.65 604.914 85.4 610.914 78.9C616.914 72.3 619.914 64.35 619.914 55.05Z" fill="#E8E8E3"/>
<path d="M459.955 3.14999H483.355V108H459.955V66.75H418.255V108H394.855V3.14999H418.255V46.95H459.955V3.14999Z" fill="#E8E8E3"/>
<path d="M362.288 108L352.538 85.35H308.587L298.837 108H273.938L319.238 3.14999H341.888L387.188 108H362.288ZM330.638 34.35L317.438 64.8H343.688L330.638 34.35Z" fill="#E8E8E3"/>
<path d="M242.869 3.14999H266.269V108H242.869V3.14999Z" fill="#E8E8E3"/>
<path d="M210.301 108L200.551 85.35H156.601L146.851 108H121.951L167.251 3.14999H189.901L235.201 108H210.301ZM178.651 34.35L165.451 64.8H191.701L178.651 34.35Z" fill="#E8E8E3"/>
<path d="M79.3687 21.3C75.4687 21.3 72.3687 22.25 70.0687 24.15C67.8687 25.95 66.7687 28.4 66.7687 31.5C66.7687 34.5 68.1187 36.9 70.8187 38.7C73.6187 40.5 79.9687 42.65 89.8687 45.15C99.8687 47.55 107.619 51.2 113.119 56.1C118.619 61 121.369 68.15 121.369 77.55C121.369 86.95 117.819 94.6 110.719 100.5C103.719 106.3 94.4687 109.2 82.9687 109.2C66.3687 109.2 51.4187 103.05 38.1187 90.75L52.0687 73.65C63.3687 83.55 73.8187 88.5 83.4187 88.5C87.7187 88.5 91.0687 87.6 93.4688 85.8C95.9687 83.9 97.2187 81.4 97.2187 78.3C97.2187 75.1 95.9187 72.6 93.3187 70.8C90.7187 68.9 85.5687 67 77.8687 65.1C65.6687 62.2 56.7187 58.45 51.0187 53.85C45.4187 49.15 42.6187 41.85 42.6187 31.95C42.6187 21.95 46.1687 14.25 53.2687 8.85C60.4687 3.45 69.4187 0.75 80.1187 0.75C87.1187 0.75 94.1187 1.95 101.119 4.35C108.119 6.75 114.219 10.15 119.419 14.55L107.569 31.65C98.4687 24.75 89.0687 21.3 79.3687 21.3Z" fill="#E8E8E3"/>
<path d="M0.900002 3.14999H24.3V108H0.900002V3.14999Z" fill="#E8E8E3"/>
</svg>
